<?xml version="1.0" encoding="utf-8"?>
<!-- Generator: Adobe Illustrator 18.0.0, SVG Export Plug-In . SVG Version: 6.00 Build 0)  -->
<!DOCTYPE svg PUBLIC "-//W3C//DTD SVG 1.1//EN" "http://www.w3.org/Graphics/SVG/1.1/DTD/svg11.dtd">
<svg version="1.1" xmlns="http://www.w3.org/2000/svg" xmlns:xlink="http://www.w3.org/1999/xlink" x="0px" y="0px"
	 viewBox="0 686.9 595.3 155" enable-background="new 0 686.9 595.3 155" xml:space="preserve">
<g id="Layer_2_1_" display="none">
	<rect x="-24" y="664.9" display="inline" fill="#231F20" width="648" height="200"/>
</g>
<g id="Layer_1">
	<g id="Layer_2">
		<rect y="684.6" display="none" fill="#5C5A52" width="595.3" height="152.5"/>
	</g>
	<g id="Layer_1_xA0_Image_1_">
		<text transform="matrix(1 0 0 1 143.6373 781.3627)" fill="#FFFFFF" font-family="'MarketDeco'" font-size="53.0668">CatLive Console</text>
		<text transform="matrix(1 0 0 1 522.9003 816.1439)" fill="#C9C9C9" font-family="'MarketDeco'" font-size="27.9559">v3.1</text>
		<g>
			<polygon fill="#949494" points="87.1,808.9 470.1,812.1 87.1,815.3 			"/>
		</g>
		<g>
			<path fill="#D1D1D1" d="M80.6,815.3c-31.2-0.1-55.8-25-55.7-56.2c0.1-30.6,25.2-55.3,55.8-55.2c30.8,0.1,55.9,25.2,55.8,56
				C136.4,790.4,111.3,815.4,80.6,815.3z M105.5,747.6c0.6,1.6,0.2,2.8,0,4c-0.2,1-0.1,1.8,1.3,2c3.3,0.6,6,1.8,6.5,5.6
				c0.1,0.3,0.5,0.7,0.7,0.9c1.9,2.3,0.8,5.2-2.3,6c-1.1,0.3-2.3,0.6-3.3,1s-2,1-1.9,2.3c0.1,1,1.3,1,2,1.4c0.8,0.5,1.6,0.7,2.4,1
				c7.5,3.5,13-1,18.1-5.1c2.2-1.7,0.8-5.2,0.9-8c0.1-2.3-0.2-4.6-0.6-6.8c-4.2-28.1-32.6-47-60.2-40.1c-26,6.6-41.8,31.3-36.7,57.7
				c1,5.2,2.8,10.2,6,15.1c0.9-3.3,1.6-6.1,3.2-8.7c2.2-3.5,3.1-4,6.9-3c0.7,0.2,1.4,0.3,1.9,0.6c2.8,1.1,4.3-0.6,5.5-2.7
				c1.1-2.2-0.7-3.1-1.9-4.1c-1.6-1.3-3.3-2.4-4.8-3.6c-5.9-4.8-6.1-13.4-0.6-18.4c2.8-2.6,6.4-4.7,6.4-9.2c0-0.9,0.7-1.8,1.9-1.7
				c1.1,0.1,1.5,1.1,1.7,2c0.6,2.5,0,4.7-1.9,6.5c-2.2,2-4.3,4-5.9,6.5c-2,3.1-2,6.5,0.2,9.3c2.8,3.6,6.6,6.1,11,6.3
				c4.7,0.1,8.8,1.3,13,2.8c4.3,1.7,8.2,1,11.7-1.8c1.7-1.4,3.2-2.8,5.3-3.1c2.8-0.3,4.3-2,5.7-4.4
				C99.7,754.1,101.3,750,105.5,747.6z M99.9,804.8c-2.7-0.8-3.6-2.4-4.6-4c-1.4-2.4-2.6-4.9-4-7.3c-1-1.7-1.4-3.5-0.9-5.5
				c0.7-2.2-0.5-2.6-2.3-2.2c-5.9,1.6-11.4,1.1-16.4-2.8c-0.9-0.8-1.8-1-2.4,0.6c-1.5,3.3-3.9,5.3-7.4,6.1c-1.5,0.5-2.2,1.4-2.4,2.8
				c-0.7,5.5,3.4,9.1,5.3,13.4c0.1,0.2,0.7,0.2,1,0.3C77.5,809.9,88.3,809.3,99.9,804.8z M127.7,773.7c-6.7,2.7-12.6,6.5-19.6,4.8
				c-5.1-1.3-7.1,1.4-9.2,5.6c-2.2,4.3-1.9,7.9,0.2,11.8c0.3,0.7,0.7,1.4,1.1,2c2.3,4,5,4.6,8.8,1.9c3.2-2.3,6.1-4.8,8.7-7.7
				C122.1,786.8,125.5,781,127.7,773.7z M57.5,802.7c-1.7-7.1-5.6-13.5,0.5-20.4c-3.8,0.6-6.6,0.2-9.2-1.4c-2.2-1.4-3.3-0.3-4.4,1.5
				c-1.8,2.6,0.5,5.8-1.5,8.3c-0.1,0.1,0.5,0.7,0.7,0.9C47.3,796,51.8,799.9,57.5,802.7z"/>
		</g>
	</g>
</g>
</svg>
