<?xml version="1.0" encoding="utf-8"?>
<!-- Generator: Adobe Illustrator 18.0.0, SVG Export Plug-In . SVG Version: 6.00 Build 0)  -->
<!DOCTYPE svg PUBLIC "-//W3C//DTD SVG 1.1//EN" "http://www.w3.org/Graphics/SVG/1.1/DTD/svg11.dtd">
<svg version="1.1" id="Layer_1" xmlns="http://www.w3.org/2000/svg" xmlns:xlink="http://www.w3.org/1999/xlink" x="0px" y="0px"
	 viewBox="0 1019.9 624 168" enable-background="new 0 1019.9 624 168" xml:space="preserve">
<g id="Layer_2_1_" display="none">
	<rect x="-24" y="1008.3" display="inline" fill="#231F20" width="648" height="200"/>
</g>
<g id="Layer_1_1_">
	<g id="Layer_2">
		<rect y="1028" display="none" fill="#5C5A52" width="595.3" height="152.5"/>
	</g>
	<g id="Layer_1_xA0_Image_1_">
		<g enable-background="new    ">
			<path fill="#FFFFFF" d="M173.6,1116.8v6.6c-2.2,0.9-4.6,1.3-7.2,1.3c-2.7,0-5.3-0.5-7.6-1.5c-2.4-1-4.4-2.4-6.2-4.1
				c-1.8-1.7-3.2-3.8-4.2-6.1s-1.5-4.8-1.5-7.5c0-2.6,0.5-5.1,1.5-7.5c1-2.4,2.4-4.4,4.2-6.1c1.8-1.7,3.9-3.1,6.2-4.1
				c2.4-1,4.9-1.5,7.6-1.5c2.6,0,5,0.4,7.2,1.3v6.7c-0.6-0.4-1.3-0.7-2-1c-1.6-0.7-3.4-1-5.2-1c-1.8,0-3.6,0.3-5.2,1
				c-1.6,0.7-3,1.6-4.2,2.8c-1.2,1.2-2.2,2.6-2.9,4.2s-1,3.3-1,5.2s0.3,3.6,1,5.2s1.6,3,2.9,4.2c1.2,1.2,2.6,2.1,4.2,2.8
				c1.6,0.7,3.4,1,5.2,1c1.8,0,3.6-0.3,5.2-1C172.2,1117.6,172.9,1117.2,173.6,1116.8z"/>
			<path fill="#FFFFFF" d="M188,1119.7l-2,5.3h-6.2l15.4-40l15.4,40h-6.2l-2-5.3H188z M190.3,1113.8h9.8l-4.9-12.7L190.3,1113.8z"/>
			<path fill="#FFFFFF" d="M207.7,1086.5h24.9v6h-9.5v32.1h-5.8v-32.1h-9.5V1086.5z"/>
			<path fill="#FFFFFF" d="M238.8,1086.7h5.8v32.3h12v5.8h-17.8V1086.7z"/>
			<path fill="#FFFFFF" d="M262.8,1086.5h5.8v38.3h-5.8V1086.5z"/>
			<path fill="#FFFFFF" d="M305.6,1086.5l-15.4,40l-15.4-40h6.2l9.2,23.8l9.1-23.8H305.6z"/>
			<path fill="#FFFFFF" d="M311.8,1086.7h17.7v5.8h-11.8v14.1h11.8v5.8h-11.8v6.6h11.8v5.8h-17.7V1086.7z"/>
			<path fill="#FFFFFF" d="M380.7,1116.8v6.6c-2.2,0.9-4.6,1.3-7.2,1.3c-2.7,0-5.3-0.5-7.6-1.5c-2.4-1-4.4-2.4-6.2-4.1
				c-1.8-1.7-3.2-3.8-4.2-6.1c-1-2.3-1.5-4.8-1.5-7.5c0-2.6,0.5-5.1,1.5-7.5c1-2.4,2.4-4.4,4.2-6.1s3.9-3.1,6.2-4.1
				c2.4-1,4.9-1.5,7.6-1.5c2.6,0,5,0.4,7.2,1.3v6.7c-0.6-0.4-1.3-0.7-2-1c-1.6-0.7-3.4-1-5.2-1c-1.8,0-3.6,0.3-5.2,1
				c-1.6,0.7-3,1.6-4.2,2.8c-1.2,1.2-2.2,2.6-2.9,4.2c-0.7,1.6-1,3.3-1,5.2s0.3,3.6,1,5.2c0.7,1.6,1.6,3,2.9,4.2
				c1.2,1.2,2.6,2.1,4.2,2.8c1.6,0.7,3.4,1,5.2,1c1.8,0,3.6-0.3,5.2-1C379.4,1117.6,380,1117.2,380.7,1116.8z"/>
			<path fill="#FFFFFF" d="M423.5,1105.6c0,2.7-0.5,5.2-1.5,7.5c-1,2.3-2.4,4.3-4.2,6.1c-1.8,1.7-3.9,3.1-6.2,4.1
				c-2.4,1-4.9,1.5-7.6,1.5c-2.7,0-5.3-0.5-7.6-1.5c-2.4-1-4.4-2.4-6.2-4.1c-1.8-1.7-3.2-3.8-4.2-6.1c-1-2.3-1.5-4.8-1.5-7.5
				c0-2.6,0.5-5.1,1.5-7.5c1-2.4,2.4-4.4,4.2-6.1s3.9-3.1,6.2-4.1c2.4-1,4.9-1.5,7.6-1.5c2.7,0,5.3,0.5,7.6,1.5
				c2.4,1,4.4,2.4,6.2,4.1s3.2,3.8,4.2,6.1C423,1100.5,423.5,1103,423.5,1105.6z M390.5,1105.6c0,1.8,0.3,3.6,1,5.2
				c0.7,1.6,1.6,3,2.9,4.2c1.2,1.2,2.6,2.1,4.2,2.8c1.6,0.7,3.4,1,5.2,1c1.8,0,3.6-0.3,5.2-1c1.6-0.7,3-1.6,4.2-2.8
				c1.2-1.2,2.1-2.6,2.8-4.2c0.7-1.6,1-3.3,1-5.2s-0.3-3.6-1-5.2c-0.7-1.6-1.6-3-2.8-4.2c-1.2-1.2-2.6-2.1-4.2-2.8
				c-1.6-0.7-3.4-1-5.2-1c-1.8,0-3.6,0.3-5.2,1c-1.6,0.7-3,1.6-4.2,2.8c-1.2,1.2-2.2,2.6-2.9,4.2
				C390.9,1102.1,390.5,1103.8,390.5,1105.6z"/>
			<path fill="#FFFFFF" d="M447.4,1108.9v-22.4h5.8v40l-17.7-23.9v22.3h-5.8v-39.9L447.4,1108.9z"/>
			<path fill="#FFFFFF" d="M467.9,1124.9c-1.7,0-3.1-0.2-4.4-0.6c-1.3-0.4-2.6-1.2-4.1-2.2v-7.1c0.9,1,1.6,1.6,2.1,1.9
				c0.5,0.3,1.1,0.7,1.8,1.1s1.5,0.7,2.3,1c0.8,0.3,1.7,0.4,2.5,0.4c1.7,0,3.1-0.6,4.2-1.8c1.1-1.2,1.6-2.6,1.6-4.2
				c0-1.3-0.5-2.4-1.4-3.2s-2.5-1.8-4.6-2.9c-1.3-0.7-2.4-1.3-3.2-1.8s-1.7-1.2-2.5-2c-0.8-0.8-1.5-1.7-2-2.8
				c-0.5-1.1-0.8-2.4-0.8-3.9c0.1-1.5,0.4-2.8,1.1-4.1c0.6-1.3,1.5-2.3,2.6-3.3s2.3-1.7,3.7-2.2c1.4-0.5,2.9-0.8,4.4-0.8
				c1.2,0,2.2,0.2,3.2,0.5c0.9,0.3,2,0.8,3.2,1.5v6c-0.7-0.5-1.2-0.8-1.5-0.9c-0.3-0.1-0.6-0.3-1.1-0.6c-0.5-0.3-1.1-0.5-1.7-0.7
				c-0.6-0.2-1.3-0.3-2.1-0.3c-1.6,0-3,0.5-4.1,1.5s-1.7,2.2-1.7,3.5c0,1.3,0.5,2.3,1.4,3c0.9,0.8,2.4,1.6,4.4,2.5
				c1.4,0.7,2.5,1.2,3.4,1.7s1.7,1.1,2.6,1.9c0.8,0.8,1.5,1.8,2,3c0.5,1.2,0.8,2.6,0.8,4.3c0,1.5-0.3,3-1,4.3
				c-0.6,1.4-1.5,2.6-2.7,3.6c-1.1,1.1-2.4,1.9-3.9,2.5C471,1124.6,469.5,1124.9,467.9,1124.9z"/>
			<path fill="#FFFFFF" d="M525.5,1105.6c0,2.7-0.5,5.2-1.5,7.5c-1,2.3-2.4,4.3-4.2,6.1c-1.8,1.7-3.9,3.1-6.2,4.1
				c-2.4,1-4.9,1.5-7.6,1.5c-2.7,0-5.3-0.5-7.6-1.5c-2.4-1-4.4-2.4-6.2-4.1c-1.8-1.7-3.2-3.8-4.2-6.1c-1-2.3-1.5-4.8-1.5-7.5
				c0-2.6,0.5-5.1,1.5-7.5c1-2.4,2.4-4.4,4.2-6.1s3.9-3.1,6.2-4.1c2.4-1,4.9-1.5,7.6-1.5c2.7,0,5.3,0.5,7.6,1.5
				c2.4,1,4.4,2.4,6.2,4.1s3.2,3.8,4.2,6.1C525,1100.5,525.5,1103,525.5,1105.6z M492.5,1105.6c0,1.8,0.3,3.6,1,5.2
				c0.7,1.6,1.6,3,2.9,4.2c1.2,1.2,2.6,2.1,4.2,2.8c1.6,0.7,3.4,1,5.2,1c1.8,0,3.6-0.3,5.2-1c1.6-0.7,3-1.6,4.2-2.8
				c1.2-1.2,2.1-2.6,2.8-4.2c0.7-1.6,1-3.3,1-5.2s-0.3-3.6-1-5.2c-0.7-1.6-1.6-3-2.8-4.2c-1.2-1.2-2.6-2.1-4.2-2.8
				c-1.6-0.7-3.4-1-5.2-1c-1.8,0-3.6,0.3-5.2,1c-1.6,0.7-3,1.6-4.2,2.8c-1.2,1.2-2.2,2.6-2.9,4.2
				C492.9,1102.1,492.5,1103.8,492.5,1105.6z"/>
			<path fill="#FFFFFF" d="M531.7,1086.7h5.8v32.3h13.2v5.8h-19.1V1086.7z"/>
			<path fill="#FFFFFF" d="M557,1086.7h17.7v5.8h-11.8v14.1h11.8v5.8h-11.8v6.6h11.8v5.8H557V1086.7z"/>
		</g>
		<g enable-background="new    ">
			<path fill="#C9C9C9" d="M540.7,1139.4l-8.1,21.1l-8.1-21.1h3.3l4.8,12.6l4.8-12.6H540.7z"/>
			<path fill="#C9C9C9" d="M547.8,1147.2h0.4h0.1c0,0,0.1,0,0.2,0c0.4,0,0.7-0.1,1.1-0.3c0.4-0.2,0.7-0.5,0.9-0.9
				c0.2-0.4,0.3-0.8,0.3-1.2c0-0.4-0.1-0.8-0.3-1.2c-0.2-0.4-0.5-0.7-0.9-0.9s-0.8-0.3-1.2-0.3c-0.4,0-0.9,0.1-1.3,0.3
				c-0.2,0.1-0.4,0.3-0.6,0.4l0,0l-3-1.1c0,0,0,0,0-0.1l0,0c0.5-0.9,1.2-1.5,2.1-2c0.9-0.5,1.8-0.7,2.8-0.7c0.9,0,1.9,0.2,2.8,0.7
				c0.9,0.5,1.6,1.1,2.1,2c0.5,0.9,0.8,1.8,0.8,2.7c0,0.9-0.2,1.8-0.8,2.7c-0.2,0.4-0.4,0.7-0.7,1c0.8,0.5,1.4,1.2,1.9,2
				c0.6,1,0.9,2.1,0.9,3.2c0,1.1-0.3,2.2-0.9,3.2c-0.6,1-1.4,1.8-2.5,2.3s-2.1,0.8-3.3,0.8c-1.1,0-2.2-0.3-3.2-0.8
				c-1-0.5-1.8-1.2-2.3-2.1c0,0,0,0,0,0l2.6-1.6c0.3,0.5,0.7,0.9,1.3,1.2c0.6,0.3,1.1,0.5,1.7,0.5c0.6,0,1.2-0.1,1.8-0.4
				s1-0.7,1.3-1.3c0.3-0.5,0.5-1.1,0.5-1.7s-0.2-1.2-0.5-1.7c-0.3-0.5-0.8-1-1.3-1.3s-1.2-0.5-1.8-0.5h-0.9V1147.2z"/>
			<path fill="#C9C9C9" d="M558.6,1156.5h2.6v3.1h-2.6V1156.5z"/>
			<path fill="#C9C9C9" d="M564.5,1139.4h5.2v20.2h-3.1v-17h-2.2L564.5,1139.4z"/>
		</g>
		<g>
			<polygon fill="#949494" points="87.1,1152.3 470.1,1155.5 87.1,1158.7 			"/>
		</g>
		<g>
			<path fill="#D1D1D1" d="M80.6,1158.7c-31.2-0.1-55.8-25-55.7-56.2c0.1-30.6,25.2-55.3,55.8-55.2c30.8,0.1,55.9,25.2,55.8,56
				C136.4,1133.8,111.3,1158.8,80.6,1158.7z M105.5,1091c0.6,1.6,0.2,2.8,0,4c-0.2,1-0.1,1.8,1.3,2c3.3,0.6,6,1.8,6.5,5.6
				c0.1,0.3,0.5,0.7,0.7,0.9c1.9,2.3,0.8,5.2-2.3,6c-1.1,0.3-2.3,0.6-3.3,1s-2,1-1.9,2.3c0.1,1,1.3,1,2,1.4c0.8,0.5,1.6,0.7,2.4,1
				c7.5,3.5,13-1,18.1-5.1c2.2-1.7,0.8-5.2,0.9-8c0.1-2.3-0.2-4.6-0.6-6.8c-4.2-28.1-32.6-47-60.2-40.1c-26,6.6-41.8,31.3-36.7,57.7
				c1,5.2,2.8,10.2,6,15.1c0.9-3.3,1.6-6.1,3.2-8.7c2.2-3.5,3.1-4,6.9-3c0.7,0.2,1.4,0.3,1.9,0.6c2.8,1.1,4.3-0.6,5.5-2.7
				c1.1-2.2-0.7-3.1-1.9-4.1c-1.6-1.3-3.3-2.4-4.8-3.6c-5.9-4.8-6.1-13.4-0.6-18.4c2.8-2.6,6.4-4.7,6.4-9.2c0-0.9,0.7-1.8,1.9-1.7
				c1.1,0.1,1.5,1.1,1.7,2c0.6,2.5,0,4.7-1.9,6.5c-2.2,2-4.3,4-5.9,6.5c-2,3.1-2,6.5,0.2,9.3c2.8,3.6,6.6,6.1,11,6.3
				c4.7,0.1,8.8,1.3,13,2.8c4.3,1.7,8.2,1,11.7-1.8c1.7-1.4,3.2-2.8,5.3-3.1c2.8-0.3,4.3-2,5.7-4.4
				C99.7,1097.5,101.3,1093.4,105.5,1091z M99.9,1148.2c-2.7-0.8-3.6-2.4-4.6-4c-1.4-2.4-2.6-4.9-4-7.3c-1-1.7-1.4-3.5-0.9-5.5
				c0.7-2.2-0.5-2.6-2.3-2.2c-5.9,1.6-11.4,1.1-16.4-2.8c-0.9-0.8-1.8-1-2.4,0.6c-1.5,3.3-3.9,5.3-7.4,6.1c-1.5,0.5-2.2,1.4-2.4,2.8
				c-0.7,5.5,3.4,9.1,5.3,13.4c0.1,0.2,0.7,0.2,1,0.3C77.5,1153.3,88.3,1152.7,99.9,1148.2z M127.7,1117.1
				c-6.7,2.7-12.6,6.5-19.6,4.8c-5.1-1.3-7.1,1.4-9.2,5.6c-2.2,4.3-1.9,7.9,0.2,11.8c0.3,0.7,0.7,1.4,1.1,2c2.3,4,5,4.6,8.8,1.9
				c3.2-2.3,6.1-4.8,8.7-7.7C122.1,1130.2,125.5,1124.4,127.7,1117.1z M57.5,1146.1c-1.7-7.1-5.6-13.5,0.5-20.4
				c-3.8,0.6-6.6,0.2-9.2-1.4c-2.2-1.4-3.3-0.3-4.4,1.5c-1.8,2.6,0.5,5.8-1.5,8.3c-0.1,0.1,0.5,0.7,0.7,0.9
				C47.3,1139.4,51.8,1143.3,57.5,1146.1z"/>
		</g>
	</g>
</g>
</svg>
