<?xml version="1.0" encoding="utf-8"?>
<!-- Generator: Adobe Illustrator 18.0.0, SVG Export Plug-In . SVG Version: 6.00 Build 0)  -->
<!DOCTYPE svg PUBLIC "-//W3C//DTD SVG 1.1//EN" "http://www.w3.org/Graphics/SVG/1.1/DTD/svg11.dtd">
<svg version="1.1" id="Layer_1" xmlns="http://www.w3.org/2000/svg" xmlns:xlink="http://www.w3.org/1999/xlink" x="0px" y="0px"
	 viewBox="0 438.7 595.3 258" enable-background="new 0 438.7 595.3 258" xml:space="preserve">
<g>
	<path fill="#CCCCCC" d="M75.9,536.4c10.3,0,24.4,0.6,35.3,3.2c0,0,0,0-0.1,0c-0.5-0.5-1.2-1.1-1.4-1.7c-0.3-0.9-0.4-2-0.5-3
		c-0.2-2.7-1.2-5.1-3.1-7c-1.2-1.2-2.5-2.3-3.8-3.4c-1.3-1.2-2.1-2.5-1.6-4.2c0.5-1.8,1.8-2.8,3.6-2.9c1.1-0.1,2,0,3,0
		c3,0.2,6.1,0.5,9.1,0.6c5.3,0.2,8.3-1.8,10.5-6.6c0.8-1.7,0.7-3.2-0.9-4.5c-1.4-1.2-2-2.8-1.9-4.6c0-2.8,0-5.6,0.1-8.4
		c0-2.4-0.7-4.3-2.6-5.8c-0.9-0.8-1.7-1.9-2.3-2.6c3.6-4,6.9-7.8,10-11.3c-4.3-0.2-9.1-0.5-14.5-0.8c3.5-4.1,5.5-8.1,4.3-13.4
		c-2.6,0.9-5,1.6-7.3,2.5c-5.8,2.2-11.9,4.1-18.2,3.9c-7.9-0.1-14.8,2.5-21.5,6.2c-3.7,2-6.6,4.8-8.8,8.4c-1.7,2.7-3.2,5.4-5,8
		c-1.4,2-2.2,4.1-2.5,6.4c-0.5,3.8-1.8,7.2-5.1,9.6c-0.8,0.5-1.2,2-1.3,3.1c-0.3,2.3,0,4.7-0.3,7.1c-0.5,4.4-1.6,8.7-1.8,13
		c-0.2,3.4-0.2,6.8-0.1,10.2C56.9,536.8,67.6,536.4,75.9,536.4z"/>
</g>
<path fill="#FFFFFF" d="M123.2,659.8c-60.7,23-93.6,0-93.6,0v-108c0,0,32.9-26.5,93.6,0C127.5,564.9,124.7,653.3,123.2,659.8z"/>
<g id="Layer_2_1_">
	<path fill="#CCCCCC" d="M126.5,653c18.4-2.2,24.3-22.3,24.3-22.3s4.2-16-3.9-39.7c-8.1-23.7-22.8-35-22.8-35l-1.1,97H126.5z"/>
</g>
<g id="Layer_3">
	<g>
		<g>
			<g>
				<path fill="#D50000" d="M82.7,611.8c0-3.3-2.7-6-6-6c-3.3,0-6,2.7-6,6c0,2.2,1.2,4,3,5.1v33.5h6v-33.5
					C81.5,615.9,82.7,613.9,82.7,611.8z"/>
				<g>
					<g>
						<path fill="#D50000" d="M90.8,622.8l-4.3-4.1c4.2-4.3,4.2-11.3,0-15.7l4.3-4.1C97.1,605.5,97.1,616.2,90.8,622.8z"/>
					</g>
					<g>
						<path fill="#D50000" d="M98.4,630.7l-4.2-4.1c8.4-8.7,8.4-22.8,0-31.5l4.3-4.1C109.1,601.9,109.1,619.8,98.4,630.7z"/>
					</g>
				</g>
				<g>
					<g>
						<path fill="#D50000" d="M62.7,622.8l4.3-4.1c-4.2-4.3-4.2-11.3,0-15.7l-4.3-4.1C56.3,605.5,56.3,616.2,62.7,622.8z"/>
					</g>
					<g>
						<path fill="#D50000" d="M55,630.7l4.3-4.1c-8.4-8.7-8.4-22.8,0-31.5L55,591C44.4,601.9,44.4,619.8,55,630.7z"/>
					</g>
				</g>
			</g>
		</g>
	</g>
</g>
<g id="Layer_1_2_">
	<path d="M75.9,536.4c-19.5,0-52.2,2-52.2,15.9c0,0.2,0,0.4,0,0.6l0,0v104.5c0,13.8,32.7,15.9,52.2,15.9s52.2-2,52.2-15.9V552.2
		C128,538.4,95.3,536.4,75.9,536.4z M119.3,642.4c-3.1,2.8-18.1,6.8-43.4,6.8c-25.2,0-40.3-4-43.4-6.8v-69.1
		c9.2,4.8,30.6,6.3,43.4,6.3s34.2-1.4,43.4-6.3V642.4z M119.2,569.1c-3.1,2.8-18.1,6.8-43.4,6.8s-40.3-4-43.4-6.8v-10.9
		c9.4,4.8,29.9,6.2,43.4,6.2s34-1.4,43.4-6.2V569.1L119.2,569.1z M75.9,559.4c-26.9,0-42.2-4.6-43.4-7v-0.1
		c1.1-2.6,16.5-7.2,43.4-7.2c27,0,42.4,4.6,43.4,7C118.2,554.8,102.8,559.4,75.9,559.4z M32.5,646.7c9.2,4.8,30.6,6.3,43.4,6.3
		s34.2-1.4,43.4-6.3v10.5c-1.1,2.6-16.4,7.2-43.4,7.2s-42.4-4.6-43.4-7.1V646.7L32.5,646.7z"/>
</g>
<g id="Layer_2">
	<g>
		<path fill="#D50000" d="M119.4,646.6v-4.4c-3.5,2.9-18.6,6.8-43.5,6.8c-25,0-40.1-4-43.5-6.9v4.4c9.3,4.9,30.8,6.4,43.5,6.4
			S110,651.5,119.4,646.6z"/>
	</g>
</g>
<g>
	<path fill="#FFFFFF" d="M221.8,577.2c0,3.1-0.7,5.5-2,7.3c-1.3,1.8-3.1,2.7-5.3,2.7c-0.7,0-1.5-0.1-2.3-0.4
		c-0.8-0.3-1.6-0.7-2.5-1.2c0.5-1.5,1-2.9,1.2-4.2c0.3-1.4,0.4-2.6,0.4-3.8c0-1.8-0.3-3.2-1-4.2c-0.6-1-1.6-1.4-2.9-1.4
		c-4,0-7.9,4.6-11.7,13.8c-3.8,9.2-5.7,18-5.7,26.3c0,4.2,0.7,7.1,2.1,8.9c1.4,1.7,4,2.6,7.7,2.6c4.3,0,8.2-1,11.8-2.9
		c3.6-2,7.7-5.6,12.3-10.8h4.6c-5.3,8.5-11,14.9-17.2,19c-6.2,4.1-13,6.2-20.3,6.2c-7,0-12.3-1.8-15.9-5.5c-3.6-3.6-5.4-9-5.4-16.2
		c0-5.2,0.8-10.7,2.4-16.5c1.6-5.8,3.8-11,6.6-15.5c3.4-5.5,7.4-9.6,12.1-12.3c4.7-2.8,9.9-4.2,15.6-4.2c5,0,8.8,1.1,11.3,3.2
		C220.5,570,221.8,573.1,221.8,577.2z"/>
	<path fill="#FFFFFF" d="M269,572.2v1l1.5-7.2h19.6l-9.8,46.4c-0.2,0.8-0.3,1.6-0.4,2.3c-0.1,0.7-0.1,1.4-0.1,2.1
		c0,2,0.5,3.5,1.4,4.4c0.9,1,2.3,1.4,4.2,1.4c2.4,0,4.5-1.1,6.4-3.3c1.9-2.2,3.5-5.4,4.6-9.5h5.7c-2.9,8.4-6.7,14.7-11.3,18.9
		c-4.6,4.2-10,6.3-16.1,6.3c-3.9,0-7-1.1-9.3-3.3c-2.3-2.2-3.7-5.3-4-9.3c-2.8,4.2-5.9,7.3-9.3,9.4c-3.4,2.1-7.1,3.1-11,3.1
		c-5.6,0-10.1-1.9-13.3-5.7c-3.2-3.8-4.8-9.2-4.8-16.2c0-5.1,0.8-10.4,2.3-16c1.5-5.5,3.7-10.6,6.4-15.1c3.4-5.4,7.3-9.5,11.7-12.3
		c4.5-2.9,9.3-4.3,14.6-4.3c3.5,0,6.3,0.6,8.2,1.8C268,568.3,269,570,269,572.2z M267.7,578.8c0-1.4-0.5-2.6-1.5-3.6
		c-1-1-2.4-1.6-4.1-1.6c-5,0-9.4,4.2-13.3,12.5c-3.9,8.4-5.8,16.6-5.8,24.8c0,3.5,0.5,6.2,1.5,8s2.8,2.7,5.3,2.7
		c2.4,0,4.7-1.1,6.9-3.4c2.2-2.3,3.7-5.1,4.4-8.6L267.7,578.8z"/>
	<path fill="#FFFFFF" d="M301.3,565.9h4.5l4.1-18.8l20.2-2.7l-4.6,21.6h8.2l-1.1,5.5h-8.2l-8.7,40.9c-0.2,0.8-0.3,1.6-0.4,2.3
		c-0.1,0.7-0.1,1.4-0.1,2.1c0,1.8,0.4,3.1,1.3,3.9c0.9,0.8,2.3,1.2,4.3,1.2c2.5,0,5-1.1,7.2-3.3c2.3-2.2,4-5.1,5-8.7h5.7
		c-2.9,8.3-6.8,14.5-11.7,18.8c-4.9,4.3-10.5,6.4-16.9,6.4c-4.5,0-8.1-1.4-10.7-4.3c-2.6-2.9-3.9-6.9-3.9-12.1c0-1.2,0.1-2.5,0.3-4
		c0.2-1.5,0.5-3.1,0.8-4.8l8.2-38.3h-4.5L301.3,565.9z"/>
	<path fill="#FFFFFF" d="M351.1,634.9c-6.1,0-10.8-1.5-14.1-4.6c-3.3-3-5-7.3-5-12.9c0-1.3,0.1-2.5,0.3-3.8c0.2-1.3,0.4-2.6,0.7-4
		l14.6-68.3l20.2-2.7l-6.5,30.7c2.2-1.4,4.1-2.3,5.8-2.9c1.7-0.6,3.5-0.9,5.4-0.9c5.4,0,9.4,1.9,12.1,5.8c2.7,3.9,4,9.7,4,17.5
		c0,5.4-0.8,10.9-2.5,16.5c-1.6,5.6-3.9,10.5-6.8,14.7c-3.4,4.9-7.4,8.6-12.1,11.1C362.3,633.6,357,634.9,351.1,634.9z M351.5,615.4
		c0,2.1,0.6,3.7,1.8,4.7c1.2,1,3,1.6,5.4,1.6c4.1,0,7.8-3.6,11-10.8c3.3-7.2,4.9-14.7,4.9-22.6c0-3.8-0.7-7-2-9.4
		c-1.3-2.5-3.1-3.7-5.3-3.7c-1.5,0-3,0.2-4.6,0.7c-1.6,0.5-2.8,1-3.4,1.8l-7.5,34.6c-0.1,0.5-0.2,1.1-0.3,1.6
		C351.5,614.4,351.5,614.9,351.5,615.4z"/>
	<path fill="#FFFFFF" d="M448.1,586.5c0-7.3-1.5-12.7-4.4-16.4c-2.9-3.6-7.3-5.5-13.1-5.5c-5.8,0-11.1,1.4-15.8,4.2
		c-4.7,2.8-8.8,6.8-12.1,12.2c-2.9,4.5-5.2,9.7-6.9,15.5c-1.7,5.8-2.5,11.3-2.5,16.5c0,7.1,1.9,12.5,5.6,16.1
		c3.7,3.6,9.1,5.5,16.2,5.5c8.6,0,16-3.8,22-11.3c6-7.5,9.5-17.5,10.6-29.7 M436.2,594.7c-1.1,8-3.1,14-6.1,19.5s-6.3,8.2-9.6,8.2
		c-2.7,0-4.6-0.8-5.5-2.3c-1-1.5-1.4-4.5-1.4-8.7c0-7.9,1.9-16.3,5.8-25.1c3.9-8.8,8-13.2,12.3-13.2c1.7,0,3,0.6,3.8,1.8
		s1.2,3.2,1.4,6.1C437.3,588,436.2,594.7,436.2,594.7z"/>
	<g>
		<path fill="#FFFFFF" d="M520.2,609.7c-1.1,3.5-2.8,6.4-5,8.7c-2.3,2.2-4.7,3.3-7.2,3.3c-2.5,0-4.5-0.9-5.7-2.8
			c-1.3-1.9-2.2-4.9-2.7-9.1l-1.2-9.5c8.3-9.1,13.5-15.5,15.7-19.2s3.3-7.2,3.3-10.6c0-3.5-0.7-6.4-2.1-8.8
			c-1.4-2.4-3.3-3.6-5.5-3.6c-2.8,0-5.1,0.6-6.8,1.8c-1.7,1.2-2.5,2.8-2.5,4.9c0,2.5,0.5,4.3,1.6,5.7c1.1,1.3,2.7,2,4.8,2
			c0.3,0,0.6,0,0.9-0.1c0.3,0,0.8-0.1,1.4-0.2c-0.1,2.4-1.1,5.1-2.9,8.1c-1.9,3-4.8,6.9-8.9,11.5l-1.2-10.4
			c-0.6-5.3-2.2-9.3-4.7-12.1c-2.5-2.8-5.8-4.2-10-4.2c-7.4,0-13.8,3.9-19.4,11.7c-2.6,3.7-5,8.1-7,13.1l5.1,2.3
			c1-2.4,2.1-4.7,3.2-6.7c3.5-6.1,6.8-9.2,10-9.2c1.4,0,2.4,0.8,3.1,2.5s1.4,4.6,2,8.8l2.2,15.3L453.1,634h9.8l18.8-22.9
			c1.3,7.9,3.3,13.8,6.1,17.8c2.8,4,6.3,5.9,10.6,5.9c6.1,0,11.5-2.2,16.4-6.5c4.8-4.3,8.6-10.6,11.5-18.8h-6.1V609.7z"/>
	</g>
	<text transform="matrix(-1.7906 -1.4429 0.6275 -0.7786 514.4528 556.5732)" font-family="'Galada-Regular'" font-size="27.7573">)</text>
	<text transform="matrix(-1.7906 -1.4429 0.6275 -0.7786 512.0876 549.8289)" font-family="'Galada-Regular'" font-size="37.0821">)</text>
	<text transform="matrix(-1.7906 -1.4429 0.6275 -0.7786 508.156 540.3969)" font-family="'Galada-Regular'" font-size="44.5944">)</text>
</g>
</svg>
