<?xml version="1.0" encoding="utf-8"?>
<!-- Generator: Adobe Illustrator 18.0.0, SVG Export Plug-In . SVG Version: 6.00 Build 0)  -->
<!DOCTYPE svg PUBLIC "-//W3C//DTD SVG 1.1//EN" "http://www.w3.org/Graphics/SVG/1.1/DTD/svg11.dtd">
<svg version="1.1" id="Layer_1_xA0_Image_1_" xmlns="http://www.w3.org/2000/svg" xmlns:xlink="http://www.w3.org/1999/xlink"
	 x="0px" y="0px" viewBox="0 339.9 523 134" enable-background="new 0 339.9 523 134" xml:space="preserve">
<text transform="matrix(1 0 0 1 126.1968 424.9271)" fill="#D50000" font-family="'MarketDeco'" font-size="46.6233">CatLive Console</text>
<text transform="matrix(1 0 0 1 466.4374 456.179)" fill="#4F4F4F" font-family="'MarketDeco'" font-size="20.5135">v3.1</text>
<g>
	<polygon fill="#A8A8A8" points="76.5,449.1 413,451.9 76.5,454.7 	"/>
</g>
<g>
	<path fill="#4F4F4F" d="M70.8,454.7c-27.4-0.1-49-22-48.9-49.4c0.1-26.9,22.1-48.6,49-48.5c27.1,0.1,49.1,22.1,49,49.2
		C119.8,432.9,97.8,454.8,70.8,454.7z M92.7,395.3c0.5,1.4,0.2,2.5,0,3.5c-0.2,0.9-0.1,1.6,1.1,1.8c2.9,0.5,5.3,1.6,5.7,4.9
		c0.1,0.3,0.4,0.6,0.6,0.8c1.7,2,0.7,4.6-2,5.3c-1,0.3-2,0.5-2.9,0.9c-0.9,0.4-1.8,0.9-1.7,2c0.1,0.9,1.1,0.9,1.8,1.2
		c0.7,0.4,1.4,0.6,2.1,0.9c6.6,3.1,11.4-0.9,15.9-4.5c1.9-1.5,0.7-4.6,0.8-7c0.1-2-0.2-4-0.5-6c-3.7-24.7-28.6-41.3-52.9-35.2
		c-22.8,5.8-36.7,27.5-32.2,50.7c0.9,4.6,2.5,9,5.3,13.3c0.8-2.9,1.4-5.4,2.8-7.6c1.9-3.1,2.7-3.5,6.1-2.6c0.6,0.2,1.2,0.3,1.7,0.5
		c2.5,1,3.8-0.5,4.8-2.4c1-1.9-0.6-2.7-1.7-3.6c-1.4-1.1-2.9-2.1-4.2-3.2c-5.2-4.2-5.4-11.8-0.5-16.2c2.5-2.3,5.6-4.1,5.6-8.1
		c0-0.8,0.6-1.6,1.7-1.5c1,0.1,1.3,1,1.5,1.8c0.5,2.2,0,4.1-1.7,5.7c-1.9,1.8-3.8,3.5-5.2,5.7c-1.8,2.7-1.8,5.7,0.2,8.2
		c2.5,3.2,5.8,5.4,9.7,5.5c4.1,0.1,7.7,1.1,11.4,2.5c3.8,1.5,7.2,0.9,10.3-1.6c1.5-1.2,2.8-2.5,4.7-2.7c2.5-0.3,3.8-1.8,5-3.9
		C87.6,401,89,397.4,92.7,395.3z M87.8,445.5c-2.4-0.7-3.2-2.1-4-3.5c-1.2-2.1-2.3-4.3-3.5-6.4c-0.9-1.5-1.2-3.1-0.8-4.8
		c0.6-1.9-0.4-2.3-2-1.9c-5.2,1.4-10,1-14.4-2.5c-0.8-0.7-1.6-0.9-2.1,0.5c-1.3,2.9-3.4,4.7-6.5,5.4c-1.3,0.4-1.9,1.2-2.1,2.5
		c-0.6,4.8,3,8,4.7,11.8c0.1,0.2,0.6,0.2,0.9,0.3C68.1,450,77.6,449.5,87.8,445.5z M112.2,418.2c-5.9,2.4-11.1,5.7-17.2,4.2
		c-4.5-1.1-6.2,1.2-8.1,4.9c-1.9,3.8-1.7,6.9,0.2,10.4c0.3,0.6,0.6,1.2,1,1.8c2,3.5,4.4,4,7.7,1.7c2.8-2,5.4-4.2,7.6-6.8
		C107.3,429.7,110.3,424.6,112.2,418.2z M50.5,443.7c-1.5-6.2-4.9-11.9,0.4-17.9c-3.3,0.5-5.8,0.2-8.1-1.2c-1.9-1.2-2.9-0.3-3.9,1.3
		c-1.6,2.3,0.4,5.1-1.3,7.3c-0.1,0.1,0.4,0.6,0.6,0.8C41.6,437.8,45.5,441.2,50.5,443.7z"/>
</g>
</svg>
